{"asset":{"version":"2.0","generator":"Blockbench 4.12.5 glTF exporter"},"scenes":[{"nodes":[6],"name":"blockbench_export"}],"scene":0,"nodes":[{"name":"cylinder","mesh":0},{"translation":[0,-0.96875,0],"name":"cylinder","mesh":1},{"translation":[0,-0.296875,0],"name":"cylinder","mesh":2},{"translation":[0,0.234375,0],"name":"cube","mesh":3},{"rotation":[0,-0.7071067811865475,0,0.7071067811865476],"translation":[0,0.234375,0],"name":"cube","mesh":4},{"rotation":[0.7071067811865475,0,0,0.7071067811865476],"translation":[0,1.265625,0.625],"name":"bone","children":[0,1,2,3,4]},{"children":[5]}],"bufferViews":[{"buffer":0,"byteOffset":0,"byteLength":1440,"target":34962,"byteStride":12},{"buffer":0,"byteOffset":1440,"byteLength":1440,"target":34962,"byteStride":12},{"buffer":0,"byteOffset":2880,"byteLength":960,"target":34962,"byteStride":8},{"buffer":0,"byteOffset":3840,"byteLength":288,"target":34963},{"buffer":0,"byteOffset":4128,"byteLength":1440,"target":34962,"byteStride":12},{"buffer":0,"byteOffset":5568,"byteLength":1440,"target":34962,"byteStride":12},{"buffer":0,"byteOffset":7008,"byteLength":960,"target":34962,"byteStride":8},{"buffer":0,"byteOffset":7968,"byteLength":288,"target":34963},{"buffer":0,"byteOffset":8256,"byteLength":1440,"target":34962,"byteStride":12},{"buffer":0,"byteOffset":9696,"byteLength":1440,"target":34962,"byteStride":12},{"buffer":0,"byteOffset":11136,"byteLength":960,"target":34962,"byteStride":8},{"buffer":0,"byteOffset":12096,"byteLength":288,"target":34963},{"buffer":0,"byteOffset":12384,"byteLength":288,"target":34962,"byteStride":12},{"buffer":0,"byteOffset":12672,"byteLength":288,"target":34962,"byteStride":12},{"buffer":0,"byteOffset":12960,"byteLength":192,"target":34962,"byteStride":8},{"buffer":0,"byteOffset":13152,"byteLength":72,"target":34963},{"buffer":0,"byteOffset":13224,"byteLength":288,"target":34962,"byteStride":12},{"buffer":0,"byteOffset":13512,"byteLength":288,"target":34962,"byteStride":12},{"buffer":0,"byteOffset":13800,"byteLength":192,"target":34962,"byteStride":8},{"buffer":0,"byteOffset":13992,"byteLength":72,"target":34963}],"buffers":[{"byteLength":14064,"uri":"data:application/octet-stream;base64,"}],"accessors":[{"bufferView":0,"componentType":5126,"count":120,"max":[0.5,0.4375,0.5],"min":[-0.5,0.0625,-0.5],"type":"VEC3"},{"bufferView":1,"componentType":5126,"count":120,"max":[1,1,1],"min":[-1,-1,-1],"type":"VEC3"},{"bufferView":2,"componentType":5126,"count":120,"max":[0.3359375,0.4609375],"min":[0.0005406250129453838,0],"type":"VEC2"},{"bufferView":3,"componentType":5123,"count":144,"max":[119],"min":[0],"type":"SCALAR"},{"bufferView":4,"componentType":5126,"count":120,"max":[0.5,0.8125,0.5],"min":[-0.5,-0.3125,-0.5],"type":"VEC3"},{"bufferView":5,"componentType":5126,"count":120,"max":[1,1,1],"min":[-1,-1,-1],"type":"VEC3"},{"bufferView":6,"componentType":5126,"count":120,"max":[0.4369593858718872,0.46875],"min":[0,0],"type":"VEC2"},{"bufferView":7,"componentType":5123,"count":144,"max":[119],"min":[0],"type":"SCALAR"},{"bufferView":8,"componentType":5126,"count":120,"max":[0.4375,0.359375,0.375],"min":[-0.4375,0.140625,-0.375],"type":"VEC3"},{"bufferView":9,"componentType":5126,"count":120,"max":[1,1,1],"min":[-1,-1,-1],"type":"VEC3"},{"bufferView":10,"componentType":5126,"count":120,"max":[0.53125,0.328125],"min":[0.0019507812103256583,0.1328125],"type":"VEC2"},{"bufferView":11,"componentType":5123,"count":144,"max":[119],"min":[0],"type":"SCALAR"},{"bufferView":12,"componentType":5126,"count":24,"max":[0.546875,0.125,0.125],"min":[-0.5625,0,-0.125],"type":"VEC3"},{"bufferView":13,"componentType":5126,"count":24,"max":[1,1,1],"min":[-1,-1,-1],"type":"VEC3"},{"bufferView":14,"componentType":5126,"count":24,"max":[0.578125,0.421875],"min":[0.125,0],"type":"VEC2"},{"bufferView":15,"componentType":5123,"count":36,"max":[23],"min":[0],"type":"SCALAR"},{"bufferView":16,"componentType":5126,"count":24,"max":[0.5625,0.125,0.125],"min":[-0.5625,0,-0.125],"type":"VEC3"},{"bufferView":17,"componentType":5126,"count":24,"max":[1,1,1],"min":[-1,-1,-1],"type":"VEC3"},{"bufferView":18,"componentType":5126,"count":24,"max":[0.5859375,0.4453125],"min":[0.1328125,0],"type":"VEC2"},{"bufferView":19,"componentType":5123,"count":36,"max":[23],"min":[0],"type":"SCALAR"}],"materials":[{"pbrMetallicRoughness":{"metallicFactor":0,"roughnessFactor":1,"baseColorTexture":{"index":0}},"alphaMode":"MASK","alphaCutoff":0.05,"doubleSided":true}],"textures":[{"sampler":0,"source":0,"name":"texture.png"}],"samplers":[{"magFilter":9728,"minFilter":9728,"wrapS":33071,"wrapT":33071}],"images":[{"mimeType":"image/png","uri":"data:image/png;base64,"}],"meshes":[{"primitives":[{"mode":4,"attributes":{"POSITION":0,"NORMAL":1,"TEXCOORD_0":2},"indices":3,"material":0}]},{"primitives":[{"mode":4,"attributes":{"POSITION":4,"NORMAL":5,"TEXCOORD_0":6},"indices":7,"material":0}]},{"primitives":[{"mode":4,"attributes":{"POSITION":8,"NORMAL":9,"TEXCOORD_0":10},"indices":11,"material":0}]},{"primitives":[{"mode":4,"attributes":{"POSITION":12,"NORMAL":13,"TEXCOORD_0":14},"indices":15,"material":0}]},{"primitives":[{"mode":4,"attributes":{"POSITION":16,"NORMAL":17,"TEXCOORD_0":18},"indices":19,"material":0}]}]}