{"asset":{"version":"2.0","generator":"Blockbench 4.12.4 glTF exporter"},"scenes":[{"nodes":[33],"name":"blockbench_export"}],"scene":0,"nodes":[{"translation":[0,-1.5,0],"name":"body","mesh":0},{"translation":[0,-1.5,0],"name":"head","mesh":1},{"translation":[0,-1.5,0],"name":"head","mesh":2},{"name":"head_outline","mesh":3},{"name":"head_outline","mesh":4},{"translation":[0,-1.5,0],"name":"head_outline","children":[3,4]},{"translation":[0,-1.5,0],"name":"hat","mesh":5},{"translation":[0,-1.5,0],"name":"hat","mesh":6},{"name":"hat","children":[6,7]},{"translation":[0,0.1875,-0.25],"name":"nose"},{"name":"head","children":[1,2,5,8,9]},{"rotation":[0.45399049973954675,0,0,0.8910065241883679],"translation":[0,-0.125,0],"name":"armsTucked"},{"translation":[0.3125,-1.375,0],"name":"leftArm","mesh":7},{"translation":[0.3125,-1.375,0],"name":"leftSleeve","mesh":8},{"name":"leftSleeve","children":[13]},{"translation":[-0.3125,-0.125,0],"name":"leftArm","children":[12,14]},{"translation":[-0.3125,-1.375,0],"name":"rightArm","mesh":9},{"translation":[-0.3125,-1.375,0],"name":"rightSleeve","mesh":10},{"name":"rightSleeve","children":[17]},{"translation":[0.3125,-0.125,0],"name":"rightArm","children":[16,18]},{"name":"jacket"},{"translation":[0,0,0.1875],"name":"cape"},{"translation":[0,0.75,0],"name":"body","children":[0,10,11,15,19,20,21]},{"translation":[0,0.75,0],"name":"waist","children":[22]},{"translation":[0.11875,-0.75,0],"name":"leftLeg","mesh":11},{"translation":[0.11875,-0.75,0],"name":"leftPants","mesh":12},{"name":"leftPants","children":[25]},{"translation":[-0.11875,0.75,0],"name":"leftLeg","children":[24,26]},{"translation":[-0.11875,-0.75,0],"name":"rightLeg","mesh":13},{"translation":[-0.11875,-0.75,0],"name":"rightPants","mesh":14},{"name":"rightPants","children":[29]},{"translation":[0.11875,0.75,0],"name":"rightLeg","children":[28,30]},{"name":"root","children":[23,27,31]},{"children":[32]}],"bufferViews":[{"buffer":0,"byteOffset":0,"byteLength":288,"target":34962,"byteStride":12},{"buffer":0,"byteOffset":288,"byteLength":288,"target":34962,"byteStride":12},{"buffer":0,"byteOffset":576,"byteLength":192,"target":34962,"byteStride":8},{"buffer":0,"byteOffset":768,"byteLength":72,"target":34963},{"buffer":0,"byteOffset":840,"byteLength":288,"target":34962,"byteStride":12},{"buffer":0,"byteOffset":1128,"byteLength":288,"target":34962,"byteStride":12},{"buffer":0,"byteOffset":1416,"byteLength":192,"target":34962,"byteStride":8},{"buffer":0,"byteOffset":1608,"byteLength":72,"target":34963},{"buffer":0,"byteOffset":1680,"byteLength":288,"target":34962,"byteStride":12},{"buffer":0,"byteOffset":1968,"byteLength":288,"target":34962,"byteStride":12},{"buffer":0,"byteOffset":2256,"byteLength":192,"target":34962,"byteStride":8},{"buffer":0,"byteOffset":2448,"byteLength":72,"target":34963},{"buffer":0,"byteOffset":2520,"byteLength":288,"target":34962,"byteStride":12},{"buffer":0,"byteOffset":2808,"byteLength":288,"target":34962,"byteStride":12},{"buffer":0,"byteOffset":3096,"byteLength":192,"target":34962,"byteStride":8},{"buffer":0,"byteOffset":3288,"byteLength":72,"target":34963},{"buffer":0,"byteOffset":3360,"byteLength":288,"target":34962,"byteStride":12},{"buffer":0,"byteOffset":3648,"byteLength":288,"target":34962,"byteStride":12},{"buffer":0,"byteOffset":3936,"byteLength":192,"target":34962,"byteStride":8},{"buffer":0,"byteOffset":4128,"byteLength":72,"target":34963},{"buffer":0,"byteOffset":4200,"byteLength":288,"target":34962,"byteStride":12},{"buffer":0,"byteOffset":4488,"byteLength":288,"target":34962,"byteStride":12},{"buffer":0,"byteOffset":4776,"byteLength":192,"target":34962,"byteStride":8},{"buffer":0,"byteOffset":4968,"byteLength":72,"target":34963},{"buffer":0,"byteOffset":5040,"byteLength":288,"target":34962,"byteStride":12},{"buffer":0,"byteOffset":5328,"byteLength":288,"target":34962,"byteStride":12},{"buffer":0,"byteOffset":5616,"byteLength":192,"target":34962,"byteStride":8},{"buffer":0,"byteOffset":5808,"byteLength":72,"target":34963},{"buffer":0,"byteOffset":5880,"byteLength":288,"target":34962,"byteStride":12},{"buffer":0,"byteOffset":6168,"byteLength":288,"target":34962,"byteStride":12},{"buffer":0,"byteOffset":6456,"byteLength":192,"target":34962,"byteStride":8},{"buffer":0,"byteOffset":6648,"byteLength":72,"target":34963},{"buffer":0,"byteOffset":6720,"byteLength":288,"target":34962,"byteStride":12},{"buffer":0,"byteOffset":7008,"byteLength":288,"target":34962,"byteStride":12},{"buffer":0,"byteOffset":7296,"byteLength":192,"target":34962,"byteStride":8},{"buffer":0,"byteOffset":7488,"byteLength":72,"target":34963},{"buffer":0,"byteOffset":7560,"byteLength":288,"target":34962,"byteStride":12},{"buffer":0,"byteOffset":7848,"byteLength":288,"target":34962,"byteStride":12},{"buffer":0,"byteOffset":8136,"byteLength":192,"target":34962,"byteStride":8},{"buffer":0,"byteOffset":8328,"byteLength":72,"target":34963},{"buffer":0,"byteOffset":8400,"byteLength":288,"target":34962,"byteStride":12},{"buffer":0,"byteOffset":8688,"byteLength":288,"target":34962,"byteStride":12},{"buffer":0,"byteOffset":8976,"byteLength":192,"target":34962,"byteStride":8},{"buffer":0,"byteOffset":9168,"byteLength":72,"target":34963},{"buffer":0,"byteOffset":9240,"byteLength":288,"target":34962,"byteStride":12},{"buffer":0,"byteOffset":9528,"byteLength":288,"target":34962,"byteStride":12},{"buffer":0,"byteOffset":9816,"byteLength":192,"target":34962,"byteStride":8},{"buffer":0,"byteOffset":10008,"byteLength":72,"target":34963},{"buffer":0,"byteOffset":10080,"byteLength":288,"target":34962,"byteStride":12},{"buffer":0,"byteOffset":10368,"byteLength":288,"target":34962,"byteStride":12},{"buffer":0,"byteOffset":10656,"byteLength":192,"target":34962,"byteStride":8},{"buffer":0,"byteOffset":10848,"byteLength":72,"target":34963},{"buffer":0,"byteOffset":10920,"byteLength":288,"target":34962,"byteStride":12},{"buffer":0,"byteOffset":11208,"byteLength":288,"target":34962,"byteStride":12},{"buffer":0,"byteOffset":11496,"byteLength":192,"target":34962,"byteStride":8},{"buffer":0,"byteOffset":11688,"byteLength":72,"target":34963},{"buffer":0,"byteOffset":11760,"byteLength":288,"target":34962,"byteStride":12},{"buffer":0,"byteOffset":12048,"byteLength":288,"target":34962,"byteStride":12},{"buffer":0,"byteOffset":12336,"byteLength":192,"target":34962,"byteStride":8},{"buffer":0,"byteOffset":12528,"byteLength":72,"target":34963},{"buffer":0,"byteOffset":12600,"byteLength":8},{"buffer":0,"byteOffset":12608,"byteLength":32},{"buffer":0,"byteOffset":12640,"byteLength":8},{"buffer":0,"byteOffset":12648,"byteLength":24},{"buffer":0,"byteOffset":12672,"byteLength":168},{"buffer":0,"byteOffset":12840,"byteLength":672},{"buffer":0,"byteOffset":13512,"byteLength":96},{"buffer":0,"byteOffset":13608,"byteLength":288},{"buffer":0,"byteOffset":13896,"byteLength":188},{"buffer":0,"byteOffset":14084,"byteLength":752},{"buffer":0,"byteOffset":14836,"byteLength":184},{"buffer":0,"byteOffset":15020,"byteLength":552},{"buffer":0,"byteOffset":15572,"byteLength":188},{"buffer":0,"byteOffset":15760,"byteLength":752},{"buffer":0,"byteOffset":16512,"byteLength":188},{"buffer":0,"byteOffset":16700,"byteLength":564},{"buffer":0,"byteOffset":17264,"byteLength":172},{"buffer":0,"byteOffset":17436,"byteLength":688},{"buffer":0,"byteOffset":18124,"byteLength":188},{"buffer":0,"byteOffset":18312,"byteLength":564},{"buffer":0,"byteOffset":18876,"byteLength":108},{"buffer":0,"byteOffset":18984,"byteLength":432},{"buffer":0,"byteOffset":19416,"byteLength":144},{"buffer":0,"byteOffset":19560,"byteLength":432},{"buffer":0,"byteOffset":19992,"byteLength":180},{"buffer":0,"byteOffset":20172,"byteLength":720},{"buffer":0,"byteOffset":20892,"byteLength":144},{"buffer":0,"byteOffset":21036,"byteLength":432}],"buffers":[{"byteLength":21468,"uri":"data:application/octet-stream;base64,"}],"accessors":[{"bufferView":0,"componentType":5126,"count":24,"max":[0.3125,1.5,0.1875],"min":[-0.3125,0.75,-0.1875],"type":"VEC3"},{"bufferView":1,"componentType":5126,"count":24,"max":[1,1,1],"min":[-1,-1,-1],"type":"VEC3"},{"bufferView":2,"componentType":5126,"count":24,"max":[0.749755859375,0.531005859375],"min":[0.250244140625,0.250244140625],"type":"VEC2"},{"bufferView":3,"componentType":5123,"count":36,"max":[23],"min":[0],"type":"SCALAR"},{"bufferView":4,"componentType":5126,"count":24,"max":[0.25,2,0.25],"min":[-0.25,1.5,-0.25],"type":"VEC3"},{"bufferView":5,"componentType":5126,"count":24,"max":[1,1,1],"min":[-1,-1,-1],"type":"VEC3"},{"bufferView":6,"componentType":5126,"count":24,"max":[0.499755859375,0.249755859375],"min":[0.000244140625,0.000244140625],"type":"VEC2"},{"bufferView":7,"componentType":5123,"count":36,"max":[23],"min":[0],"type":"SCALAR"},{"bufferView":8,"componentType":5126,"count":24,"max":[0.25,1.5,-0.125],"min":[-0.25,1.3125,-0.25],"type":"VEC3"},{"bufferView":9,"componentType":5126,"count":24,"max":[1,1,1],"min":[-1,-1,-1],"type":"VEC3"},{"bufferView":10,"componentType":5126,"count":24,"max":[0.702880859375,0.077880859375],"min":[0.390869140625,0.000244140625],"type":"VEC2"},{"bufferView":11,"componentType":5123,"count":36,"max":[23],"min":[0],"type":"SCALAR"},{"bufferView":12,"componentType":5126,"count":24,"max":[0.265625,2.015625,0.265625],"min":[-0.265625,1.484375,-0.265625],"type":"VEC3"},{"bufferView":13,"componentType":5126,"count":24,"max":[1,1,1],"min":[-1,-1,-1],"type":"VEC3"},{"bufferView":14,"componentType":5126,"count":24,"max":[0.499755859375,0.249755859375],"min":[0.000244140625,0.000244140625],"type":"VEC2"},{"bufferView":15,"componentType":5123,"count":36,"max":[23],"min":[0],"type":"SCALAR"},{"bufferView":16,"componentType":5126,"count":24,"max":[0.390625,1.828125,0.328125],"min":[-0.390625,1.421875,-0.078125],"type":"VEC3"},{"bufferView":17,"componentType":5126,"count":24,"max":[1,1,1],"min":[-1,-1,-1],"type":"VEC3"},{"bufferView":18,"componentType":5126,"count":24,"max":[0.812255859375,0.999755859375],"min":[0.250244140625,0.812744140625],"type":"VEC2"},{"bufferView":19,"componentType":5123,"count":36,"max":[23],"min":[0],"type":"SCALAR"},{"bufferView":20,"componentType":5126,"count":24,"max":[0.375,1.8125,0.3125],"min":[-0.375,1.4375,-0.0625],"type":"VEC3"},{"bufferView":21,"componentType":5126,"count":24,"max":[1,1,1],"min":[-1,-1,-1],"type":"VEC3"},{"bufferView":22,"componentType":5126,"count":24,"max":[0.812255859375,0.999755859375],"min":[0.250244140625,0.812744140625],"type":"VEC2"},{"bufferView":23,"componentType":5123,"count":36,"max":[23],"min":[0],"type":"SCALAR"},{"bufferView":24,"componentType":5126,"count":24,"max":[0.28125,2.03125,0.15625],"min":[-0.28125,1.34375,-0.28125],"type":"VEC3"},{"bufferView":25,"componentType":5126,"count":24,"max":[1,1,1],"min":[-1,-1,-1],"type":"VEC3"},{"bufferView":26,"componentType":5126,"count":24,"max":[0.734130859375,0.812255859375],"min":[0.297119140625,0.562744140625],"type":"VEC2"},{"bufferView":27,"componentType":5123,"count":36,"max":[23],"min":[0],"type":"SCALAR"},{"bufferView":28,"componentType":5126,"count":24,"max":[-0.3125,1.5,0.125],"min":[-0.5625,0.75,-0.125],"type":"VEC3"},{"bufferView":29,"componentType":5126,"count":24,"max":[1,1,1],"min":[-1,-1,-1],"type":"VEC3"},{"bufferView":30,"componentType":5126,"count":24,"max":[0.999755859375,0.531005859375],"min":[0.750244140625,0.281494140625],"type":"VEC2"},{"bufferView":31,"componentType":5123,"count":36,"max":[23],"min":[0],"type":"SCALAR"},{"bufferView":32,"componentType":5126,"count":24,"max":[-0.296875,1.515625,0.140625],"min":[-0.578125,0.734375,-0.140625],"type":"VEC3"},{"bufferView":33,"componentType":5126,"count":24,"max":[1,1,1],"min":[-1,-1,-1],"type":"VEC3"},{"bufferView":34,"componentType":5126,"count":24,"max":[0.249755859375,0.999755859375],"min":[0.000244140625,0.750244140625],"type":"VEC2"},{"bufferView":35,"componentType":5123,"count":36,"max":[23],"min":[0],"type":"SCALAR"},{"bufferView":36,"componentType":5126,"count":24,"max":[0.5625,1.5,0.125],"min":[0.3125,0.75,-0.125],"type":"VEC3"},{"bufferView":37,"componentType":5126,"count":24,"max":[1,1,1],"min":[-1,-1,-1],"type":"VEC3"},{"bufferView":38,"componentType":5126,"count":24,"max":[0.999755859375,0.531005859375],"min":[0.750244140625,0.281494140625],"type":"VEC2"},{"bufferView":39,"componentType":5123,"count":36,"max":[23],"min":[0],"type":"SCALAR"},{"bufferView":40,"componentType":5126,"count":24,"max":[0.578125,1.515625,0.140625],"min":[0.296875,0.734375,-0.140625],"type":"VEC3"},{"bufferView":41,"componentType":5126,"count":24,"max":[1,1,1],"min":[-1,-1,-1],"type":"VEC3"},{"bufferView":42,"componentType":5126,"count":24,"max":[0.249755859375,0.999755859375],"min":[0.000244140625,0.750244140625],"type":"VEC2"},{"bufferView":43,"componentType":5123,"count":36,"max":[23],"min":[0],"type":"SCALAR"},{"bufferView":44,"componentType":5126,"count":24,"max":[0.0062500000931322575,0.75,0.125],"min":[-0.24375000596046448,0,-0.125],"type":"VEC3"},{"bufferView":45,"componentType":5126,"count":24,"max":[1,1,1],"min":[-1,-1,-1],"type":"VEC3"},{"bufferView":46,"componentType":5126,"count":24,"max":[0.999755859375,0.781005859375],"min":[0.750244140625,0.531494140625],"type":"VEC2"},{"bufferView":47,"componentType":5123,"count":36,"max":[23],"min":[0],"type":"SCALAR"},{"bufferView":48,"componentType":5126,"count":24,"max":[0.02187499962747097,0.765625,0.140625],"min":[-0.2593750059604645,-0.015625,-0.140625],"type":"VEC3"},{"bufferView":49,"componentType":5126,"count":24,"max":[1,1,1],"min":[-1,-1,-1],"type":"VEC3"},{"bufferView":50,"componentType":5126,"count":24,"max":[0.249755859375,0.749755859375],"min":[0.000244140625,0.500244140625],"type":"VEC2"},{"bufferView":51,"componentType":5123,"count":36,"max":[23],"min":[0],"type":"SCALAR"},{"bufferView":52,"componentType":5126,"count":24,"max":[0.24375000596046448,0.75,0.125],"min":[-0.0062500000931322575,0,-0.125],"type":"VEC3"},{"bufferView":53,"componentType":5126,"count":24,"max":[1,1,1],"min":[-1,-1,-1],"type":"VEC3"},{"bufferView":54,"componentType":5126,"count":24,"max":[0.249755859375,0.499755859375],"min":[0.000244140625,0.250244140625],"type":"VEC2"},{"bufferView":55,"componentType":5123,"count":36,"max":[23],"min":[0],"type":"SCALAR"},{"bufferView":56,"componentType":5126,"count":24,"max":[0.2593750059604645,0.765625,0.140625],"min":[-0.02187499962747097,-0.015625,-0.140625],"type":"VEC3"},{"bufferView":57,"componentType":5126,"count":24,"max":[1,1,1],"min":[-1,-1,-1],"type":"VEC3"},{"bufferView":58,"componentType":5126,"count":24,"max":[0.249755859375,0.749755859375],"min":[0.000244140625,0.500244140625],"type":"VEC2"},{"bufferView":59,"componentType":5123,"count":36,"max":[23],"min":[0],"type":"SCALAR"},{"bufferView":60,"componentType":5126,"count":2,"max":[1.916700005531311],"min":[0],"type":"SCALAR"},{"bufferView":61,"componentType":5126,"count":2,"max":[0.017419686540961266,-0.02183438278734684,-0.00092776381643489,0.9996094107627869],"min":[0.017419686540961266,-0.02183438278734684,-0.00092776381643489,0.9996094107627869],"type":"VEC4"},{"bufferView":62,"componentType":5126,"count":2,"max":[1.916700005531311],"min":[0],"type":"SCALAR"},{"bufferView":63,"componentType":5126,"count":2,"max":[0,0.6875,0],"min":[0,0.6875,0],"type":"VEC3"},{"bufferView":64,"componentType":5126,"count":42,"max":[1.916700005531311],"min":[0],"type":"SCALAR"},{"bufferView":65,"componentType":5126,"count":42,"max":[0.1461954414844513,0,0.011448673903942108,1],"min":[0,-0.01735309697687626,0,0.9892171025276184],"type":"VEC4"},{"bufferView":66,"componentType":5126,"count":24,"max":[1.916700005531311],"min":[0],"type":"SCALAR"},{"bufferView":67,"componentType":5126,"count":24,"max":[0,0,0],"min":[0,0,0],"type":"VEC3"},{"bufferView":68,"componentType":5126,"count":47,"max":[1.916700005531311],"min":[0],"type":"SCALAR"},{"bufferView":69,"componentType":5126,"count":47,"max":[0.017419686540961266,0.007718187291175127,-0.0002586649206932634,0.9999999403953552],"min":[-0.20876096189022064,-0.02183438278734684,-0.011891956441104412,0.9779629111289978],"type":"VEC4"},{"bufferView":70,"componentType":5126,"count":46,"max":[1.916700005531311],"min":[0],"type":"SCALAR"},{"bufferView":71,"componentType":5126,"count":46,"max":[0,0.9745568633079529,0.15187500417232513],"min":[-0.011811874806880951,0.6840749979019165,-0.0015625000232830644],"type":"VEC3"},{"bufferView":72,"componentType":5126,"count":47,"max":[1.916700005531311],"min":[0],"type":"SCALAR"},{"bufferView":73,"componentType":5126,"count":47,"max":[0.23668767511844635,0.12759169936180115,-0.07142277806997299,0.9949118494987488],"min":[-0.03071790188550949,-0.1054927185177803,-0.5793628692626953,0.770878255367279],"type":"VEC4"},{"bufferView":74,"componentType":5126,"count":47,"max":[1.916700005531311],"min":[0],"type":"SCALAR"},{"bufferView":75,"componentType":5126,"count":47,"max":[-0.3125,-0.125,0.017500000074505806],"min":[-0.34375,-0.2356249988079071,-0.038750000298023224],"type":"VEC3"},{"bufferView":76,"componentType":5126,"count":43,"max":[1.916700005531311],"min":[0],"type":"SCALAR"},{"bufferView":77,"componentType":5126,"count":43,"max":[0.13840192556381226,-0.004513360094279051,0.5693827867507935,0.9967379570007324],"min":[-0.056317251175642014,-0.19695080816745758,0.04495104402303696,0.7863395810127258],"type":"VEC4"},{"bufferView":78,"componentType":5126,"count":47,"max":[1.916700005531311],"min":[0],"type":"SCALAR"},{"bufferView":79,"componentType":5126,"count":47,"max":[0.3129337430000305,-0.125,0.07124999910593033],"min":[0.2862499952316284,-0.2918750047683716,0.02500000037252903],"type":"VEC3"},{"bufferView":80,"componentType":5126,"count":27,"max":[1.916700005531311],"min":[0],"type":"SCALAR"},{"bufferView":81,"componentType":5126,"count":27,"max":[-0.016759095713496208,0.07555428147315979,-0.020056182518601418,0.9973646998405457],"min":[-0.021819675341248512,0.059614747762680054,-0.08501435816287994,0.9934081435203552],"type":"VEC4"},{"bufferView":82,"componentType":5126,"count":36,"max":[1.916700005531311],"min":[0],"type":"SCALAR"},{"bufferView":83,"componentType":5126,"count":36,"max":[-0.14687499403953552,1,-0.024406250566244125],"min":[-0.14687499403953552,0.75,-0.06531249731779099],"type":"VEC3"},{"bufferView":84,"componentType":5126,"count":45,"max":[1.916700005531311],"min":[0],"type":"SCALAR"},{"bufferView":85,"componentType":5126,"count":45,"max":[-0.02455883100628853,-0.06974957883358002,0.17106129229068756,0.9961268305778503],"min":[-0.033953454345464706,-0.11031023412942886,0.039297398179769516,0.9822016954421997],"type":"VEC4"},{"bufferView":86,"componentType":5126,"count":36,"max":[1.916700005531311],"min":[0],"type":"SCALAR"},{"bufferView":87,"componentType":5126,"count":36,"max":[0.13249999284744263,1.0625,-0.01875000074505806],"min":[0.13249999284744263,0.75,-0.078125],"type":"VEC3"}],"materials":[{"pbrMetallicRoughness":{"metallicFactor":0,"roughnessFactor":1,"baseColorTexture":{"index":0}},"alphaMode":"MASK","alphaCutoff":0.05,"doubleSided":true}],"textures":[{"sampler":0,"source":0,"name":"steve.png"}],"samplers":[{"magFilter":9728,"minFilter":9728,"wrapS":33071,"wrapT":33071}],"images":[{"mimeType":"image/png","uri":"data:image/png;base64,"}],"meshes":[{"primitives":[{"mode":4,"attributes":{"POSITION":0,"NORMAL":1,"TEXCOORD_0":2},"indices":3,"material":0}]},{"primitives":[{"mode":4,"attributes":{"POSITION":4,"NORMAL":5,"TEXCOORD_0":6},"indices":7,"material":0}]},{"primitives":[{"mode":4,"attributes":{"POSITION":8,"NORMAL":9,"TEXCOORD_0":10},"indices":11,"material":0}]},{"primitives":[{"mode":4,"attributes":{"POSITION":12,"NORMAL":13,"TEXCOORD_0":14},"indices":15,"material":0}]},{"primitives":[{"mode":4,"attributes":{"POSITION":16,"NORMAL":17,"TEXCOORD_0":18},"indices":19,"material":0}]},{"primitives":[{"mode":4,"attributes":{"POSITION":20,"NORMAL":21,"TEXCOORD_0":22},"indices":23,"material":0}]},{"primitives":[{"mode":4,"attributes":{"POSITION":24,"NORMAL":25,"TEXCOORD_0":26},"indices":27,"material":0}]},{"primitives":[{"mode":4,"attributes":{"POSITION":28,"NORMAL":29,"TEXCOORD_0":30},"indices":31,"material":0}]},{"primitives":[{"mode":4,"attributes":{"POSITION":32,"NORMAL":33,"TEXCOORD_0":34},"indices":35,"material":0}]},{"primitives":[{"mode":4,"attributes":{"POSITION":36,"NORMAL":37,"TEXCOORD_0":38},"indices":39,"material":0}]},{"primitives":[{"mode":4,"attributes":{"POSITION":40,"NORMAL":41,"TEXCOORD_0":42},"indices":43,"material":0}]},{"primitives":[{"mode":4,"attributes":{"POSITION":44,"NORMAL":45,"TEXCOORD_0":46},"indices":47,"material":0}]},{"primitives":[{"mode":4,"attributes":{"POSITION":48,"NORMAL":49,"TEXCOORD_0":50},"indices":51,"material":0}]},{"primitives":[{"mode":4,"attributes":{"POSITION":52,"NORMAL":53,"TEXCOORD_0":54},"indices":55,"material":0}]},{"primitives":[{"mode":4,"attributes":{"POSITION":56,"NORMAL":57,"TEXCOORD_0":58},"indices":59,"material":0}]}],"animations":[{"name":"animation.spark.player_steve.wardrobe_idle_special","samplers":[{"input":60,"output":61,"interpolation":"LINEAR"},{"input":62,"output":63,"interpolation":"LINEAR"},{"input":64,"output":65,"interpolation":"LINEAR"},{"input":66,"output":67,"interpolation":"LINEAR"},{"input":68,"output":69,"interpolation":"LINEAR"},{"input":70,"output":71,"interpolation":"LINEAR"},{"input":72,"output":73,"interpolation":"LINEAR"},{"input":74,"output":75,"interpolation":"LINEAR"},{"input":76,"output":77,"interpolation":"LINEAR"},{"input":78,"output":79,"interpolation":"LINEAR"},{"input":80,"output":81,"interpolation":"LINEAR"},{"input":82,"output":83,"interpolation":"LINEAR"},{"input":84,"output":85,"interpolation":"LINEAR"},{"input":86,"output":87,"interpolation":"LINEAR"}],"channels":[{"sampler":0,"target":{"node":22,"path":"rotation"}},{"sampler":1,"target":{"node":22,"path":"translation"}},{"sampler":2,"target":{"node":10,"path":"rotation"}},{"sampler":3,"target":{"node":10,"path":"translation"}},{"sampler":4,"target":{"node":23,"path":"rotation"}},{"sampler":5,"target":{"node":23,"path":"translation"}},{"sampler":6,"target":{"node":15,"path":"rotation"}},{"sampler":7,"target":{"node":15,"path":"translation"}},{"sampler":8,"target":{"node":19,"path":"rotation"}},{"sampler":9,"target":{"node":19,"path":"translation"}},{"sampler":10,"target":{"node":27,"path":"rotation"}},{"sampler":11,"target":{"node":27,"path":"translation"}},{"sampler":12,"target":{"node":31,"path":"rotation"}},{"sampler":13,"target":{"node":31,"path":"translation"}}]}]}