{"asset":{"version":"2.0","generator":"Blockbench 4.12.5 glTF exporter"},"scenes":[{"nodes":[13],"name":"blockbench_export"}],"scene":0,"nodes":[{"translation":[0,0.015625,0],"name":"cube","mesh":0},{"translation":[0.0625,0,0.0625],"name":"cube","mesh":1},{"translation":[0.0625,0.015625,0.9375],"name":"cube","mesh":2},{"translation":[0.9375,0.015625,0.9375],"name":"cube","mesh":3},{"translation":[0.9375,-0.046875,0.0625],"name":"cube","mesh":4},{"translation":[0,-0.0625,0],"name":"cube","mesh":5},{"translation":[0,0.03125,0],"name":"cylinder","mesh":6},{"translation":[0,0.53125,0],"name":"cylinder","mesh":7},{"translation":[0,1.03125,0],"name":"sphere","mesh":8},{"translation":[0,0.03125,0],"name":"cylinder","mesh":9},{"name":"pyramid","mesh":10},{"rotation":[0,0.7071067811865475,0,0.7071067811865476],"name":"pyramid","mesh":11},{"translation":[0,0.53125,0],"name":"bone","children":[6,7,8,9,10,11]},{"children":[0,1,2,3,4,5,12]}],"bufferViews":[{"buffer":0,"byteOffset":0,"byteLength":288,"target":34962,"byteStride":12},{"buffer":0,"byteOffset":288,"byteLength":288,"target":34962,"byteStride":12},{"buffer":0,"byteOffset":576,"byteLength":192,"target":34962,"byteStride":8},{"buffer":0,"byteOffset":768,"byteLength":72,"target":34963},{"buffer":0,"byteOffset":840,"byteLength":288,"target":34962,"byteStride":12},{"buffer":0,"byteOffset":1128,"byteLength":288,"target":34962,"byteStride":12},{"buffer":0,"byteOffset":1416,"byteLength":192,"target":34962,"byteStride":8},{"buffer":0,"byteOffset":1608,"byteLength":72,"target":34963},{"buffer":0,"byteOffset":1680,"byteLength":288,"target":34962,"byteStride":12},{"buffer":0,"byteOffset":1968,"byteLength":288,"target":34962,"byteStride":12},{"buffer":0,"byteOffset":2256,"byteLength":192,"target":34962,"byteStride":8},{"buffer":0,"byteOffset":2448,"byteLength":72,"target":34963},{"buffer":0,"byteOffset":2520,"byteLength":288,"target":34962,"byteStride":12},{"buffer":0,"byteOffset":2808,"byteLength":288,"target":34962,"byteStride":12},{"buffer":0,"byteOffset":3096,"byteLength":192,"target":34962,"byteStride":8},{"buffer":0,"byteOffset":3288,"byteLength":72,"target":34963},{"buffer":0,"byteOffset":3360,"byteLength":288,"target":34962,"byteStride":12},{"buffer":0,"byteOffset":3648,"byteLength":288,"target":34962,"byteStride":12},{"buffer":0,"byteOffset":3936,"byteLength":192,"target":34962,"byteStride":8},{"buffer":0,"byteOffset":4128,"byteLength":72,"target":34963},{"buffer":0,"byteOffset":4200,"byteLength":288,"target":34962,"byteStride":12},{"buffer":0,"byteOffset":4488,"byteLength":288,"target":34962,"byteStride":12},{"buffer":0,"byteOffset":4776,"byteLength":192,"target":34962,"byteStride":8},{"buffer":0,"byteOffset":4968,"byteLength":72,"target":34963},{"buffer":0,"byteOffset":5040,"byteLength":1440,"target":34962,"byteStride":12},{"buffer":0,"byteOffset":6480,"byteLength":1440,"target":34962,"byteStride":12},{"buffer":0,"byteOffset":7920,"byteLength":960,"target":34962,"byteStride":8},{"buffer":0,"byteOffset":8880,"byteLength":288,"target":34963},{"buffer":0,"byteOffset":9168,"byteLength":1440,"target":34962,"byteStride":12},{"buffer":0,"byteOffset":10608,"byteLength":1440,"target":34962,"byteStride":12},{"buffer":0,"byteOffset":12048,"byteLength":960,"target":34962,"byteStride":8},{"buffer":0,"byteOffset":13008,"byteLength":288,"target":34963},{"buffer":0,"byteOffset":13296,"byteLength":3168,"target":34962,"byteStride":12},{"buffer":0,"byteOffset":16464,"byteLength":3168,"target":34962,"byteStride":12},{"buffer":0,"byteOffset":19632,"byteLength":2112,"target":34962,"byteStride":8},{"buffer":0,"byteOffset":21744,"byteLength":720,"target":34963},{"buffer":0,"byteOffset":22464,"byteLength":1440,"target":34962,"byteStride":12},{"buffer":0,"byteOffset":23904,"byteLength":1440,"target":34962,"byteStride":12},{"buffer":0,"byteOffset":25344,"byteLength":960,"target":34962,"byteStride":8},{"buffer":0,"byteOffset":26304,"byteLength":288,"target":34963},{"buffer":0,"byteOffset":26592,"byteLength":192,"target":34962,"byteStride":12},{"buffer":0,"byteOffset":26784,"byteLength":192,"target":34962,"byteStride":12},{"buffer":0,"byteOffset":26976,"byteLength":128,"target":34962,"byteStride":8},{"buffer":0,"byteOffset":27104,"byteLength":36,"target":34963},{"buffer":0,"byteOffset":27140,"byteLength":192,"target":34962,"byteStride":12},{"buffer":0,"byteOffset":27332,"byteLength":192,"target":34962,"byteStride":12},{"buffer":0,"byteOffset":27524,"byteLength":128,"target":34962,"byteStride":8},{"buffer":0,"byteOffset":27652,"byteLength":36,"target":34963},{"buffer":0,"byteOffset":27688,"byteLength":68},{"buffer":0,"byteOffset":27756,"byteLength":272},{"buffer":0,"byteOffset":28028,"byteLength":12},{"buffer":0,"byteOffset":28040,"byteLength":36},{"buffer":0,"byteOffset":28076,"byteLength":12},{"buffer":0,"byteOffset":28088,"byteLength":36}],"buffers":[{"byteLength":28124,"uri":"data:application/octet-stream;base64,"}],"accessors":[{"bufferView":0,"componentType":5126,"count":24,"max":[0.5,0.515625,0.5],"min":[-0.5,0.4375,-0.5],"type":"VEC3"},{"bufferView":1,"componentType":5126,"count":24,"max":[1,1,1],"min":[-1,-1,-1],"type":"VEC3"},{"bufferView":2,"componentType":5126,"count":24,"max":[0.5,0.5],"min":[0,0],"type":"VEC2"},{"bufferView":3,"componentType":5123,"count":36,"max":[23],"min":[0],"type":"SCALAR"},{"bufferView":4,"componentType":5126,"count":24,"max":[-0.4375,0.453125,-0.4375],"min":[-0.5625,0,-0.5625],"type":"VEC3"},{"bufferView":5,"componentType":5126,"count":24,"max":[1,1,1],"min":[-1,-1,-1],"type":"VEC3"},{"bufferView":6,"componentType":5126,"count":24,"max":[0.0625,0.2265625],"min":[0,0],"type":"VEC2"},{"bufferView":7,"componentType":5123,"count":36,"max":[23],"min":[0],"type":"SCALAR"},{"bufferView":8,"componentType":5126,"count":24,"max":[-0.4375,0.4375,-0.4375],"min":[-0.5625,-0.015625,-0.5625],"type":"VEC3"},{"bufferView":9,"componentType":5126,"count":24,"max":[1,1,1],"min":[-1,-1,-1],"type":"VEC3"},{"bufferView":10,"componentType":5126,"count":24,"max":[0.0625,0.2265625],"min":[0,0],"type":"VEC2"},{"bufferView":11,"componentType":5123,"count":36,"max":[23],"min":[0],"type":"SCALAR"},{"bufferView":12,"componentType":5126,"count":24,"max":[-0.4375,0.4375,-0.4375],"min":[-0.5625,-0.015625,-0.5625],"type":"VEC3"},{"bufferView":13,"componentType":5126,"count":24,"max":[1,1,1],"min":[-1,-1,-1],"type":"VEC3"},{"bufferView":14,"componentType":5126,"count":24,"max":[0.0625,0.2265625],"min":[0,0],"type":"VEC2"},{"bufferView":15,"componentType":5123,"count":36,"max":[23],"min":[0],"type":"SCALAR"},{"bufferView":16,"componentType":5126,"count":24,"max":[-0.4375,0.5,-0.4375],"min":[-0.5625,0.046875,-0.5625],"type":"VEC3"},{"bufferView":17,"componentType":5126,"count":24,"max":[1,1,1],"min":[-1,-1,-1],"type":"VEC3"},{"bufferView":18,"componentType":5126,"count":24,"max":[0.0625,0.2265625],"min":[0,0],"type":"VEC2"},{"bufferView":19,"componentType":5123,"count":36,"max":[23],"min":[0],"type":"SCALAR"},{"bufferView":20,"componentType":5126,"count":24,"max":[0.375,0.515625,0.375],"min":[-0.375,0.0625,-0.390625],"type":"VEC3"},{"bufferView":21,"componentType":5126,"count":24,"max":[1,1,1],"min":[-1,-1,-1],"type":"VEC3"},{"bufferView":22,"componentType":5126,"count":24,"max":[0.3828125,0.3828125],"min":[0,0],"type":"VEC2"},{"bufferView":23,"componentType":5123,"count":36,"max":[23],"min":[0],"type":"SCALAR"},{"bufferView":24,"componentType":5126,"count":120,"max":[0.1875,0.5,0.1875],"min":[-0.1875,0,-0.1875],"type":"VEC3"},{"bufferView":25,"componentType":5126,"count":120,"max":[1,1,1],"min":[-1,-1,-1],"type":"VEC3"},{"bufferView":26,"componentType":5126,"count":120,"max":[0.59375,0.78125],"min":[0.0027687500696629286,0],"type":"VEC2"},{"bufferView":27,"componentType":5123,"count":144,"max":[119],"min":[0],"type":"SCALAR"},{"bufferView":28,"componentType":5126,"count":120,"max":[0.203125,0.5,0.203125],"min":[-0.203125,0,-0.203125],"type":"VEC3"},{"bufferView":29,"componentType":5126,"count":120,"max":[1,1,1],"min":[-1,-1,-1],"type":"VEC3"},{"bufferView":30,"componentType":5126,"count":120,"max":[0.6827437281608582,0.53125],"min":[0,0],"type":"VEC2"},{"bufferView":31,"componentType":5123,"count":144,"max":[119],"min":[0],"type":"SCALAR"},{"bufferView":32,"componentType":5126,"count":264,"max":[0.203125,0.1875,0.203125],"min":[-0.203125,-0.1875,-0.203125],"type":"VEC3"},{"bufferView":33,"componentType":5126,"count":264,"max":[0.9603571891784668,0.9707480669021606,0.9603571891784668],"min":[-0.9603571891784668,-0.9707480669021606,-0.9603571891784668],"type":"VEC3"},{"bufferView":34,"componentType":5126,"count":264,"max":[0.6331778168678284,0.5625],"min":[0.007572812493890524,0],"type":"VEC2"},{"bufferView":35,"componentType":5123,"count":360,"max":[263],"min":[0],"type":"SCALAR"},{"bufferView":36,"componentType":5126,"count":120,"max":[0.21875,0.390625,0.21875],"min":[-0.21875,0.109375,-0.21875],"type":"VEC3"},{"bufferView":37,"componentType":5126,"count":120,"max":[1,1,1],"min":[-1,-1,-1],"type":"VEC3"},{"bufferView":38,"componentType":5126,"count":120,"max":[0.650418758392334,0.515625],"min":[0,0],"type":"VEC2"},{"bufferView":39,"componentType":5123,"count":144,"max":[119],"min":[0],"type":"SCALAR"},{"bufferView":40,"componentType":5126,"count":16,"max":[0.0625,0.5,0.5062500238418579],"min":[-0.0625,0,-0.5062500238418579],"type":"VEC3"},{"bufferView":41,"componentType":5126,"count":16,"max":[0.9922778606414795,0.7114850282669067,0.7027012705802917],"min":[-0.9922778606414795,-1,-0.7027012705802917],"type":"VEC3"},{"bufferView":42,"componentType":5126,"count":16,"max":[0.38169875741004944,0.5368423461914062],"min":[0.09381062537431717,0],"type":"VEC2"},{"bufferView":43,"componentType":5123,"count":18,"max":[15],"min":[0],"type":"SCALAR"},{"bufferView":44,"componentType":5126,"count":16,"max":[0.09375,0.5,0.5],"min":[-0.09375,0,-0.5],"type":"VEC3"},{"bufferView":45,"componentType":5126,"count":16,"max":[0.9828721880912781,0.7071067690849304,0.7071067690849304],"min":[-0.9828721880912781,-1,-0.7071067690849304],"type":"VEC3"},{"bufferView":46,"componentType":5126,"count":16,"max":[0.2811893820762634,0.515625],"min":[0,0],"type":"VEC2"},{"bufferView":47,"componentType":5123,"count":18,"max":[15],"min":[0],"type":"SCALAR"},{"bufferView":48,"componentType":5126,"count":17,"max":[1.0416699647903442],"min":[0],"type":"SCALAR"},{"bufferView":49,"componentType":5126,"count":17,"max":[0,0,0,1],"min":[0,-0.1736481785774231,0,0.9848077297210693],"type":"VEC4"},{"bufferView":50,"componentType":5126,"count":3,"max":[1.6666699647903442],"min":[0],"type":"SCALAR"},{"bufferView":51,"componentType":5126,"count":3,"max":[0,62.96875,0],"min":[0,0.53125,0],"type":"VEC3"},{"bufferView":52,"componentType":5126,"count":3,"max":[1.1666699647903442],"min":[0.875],"type":"SCALAR"},{"bufferView":53,"componentType":5126,"count":3,"max":[1,1,1],"min":[1,0.800000011920929,1],"type":"VEC3"}],"materials":[{"pbrMetallicRoughness":{"metallicFactor":0,"roughnessFactor":1},"alphaMode":"MASK","alphaCutoff":0.05,"doubleSided":true},{"pbrMetallicRoughness":{"metallicFactor":0,"roughnessFactor":1,"baseColorTexture":{"index":0}},"alphaMode":"MASK","alphaCutoff":0.05,"doubleSided":true},{"pbrMetallicRoughness":{"metallicFactor":0,"roughnessFactor":1,"baseColorTexture":{"index":1}},"alphaMode":"MASK","alphaCutoff":0.05,"doubleSided":true},{"pbrMetallicRoughness":{"metallicFactor":0,"roughnessFactor":1,"baseColorTexture":{"index":2}},"alphaMode":"MASK","alphaCutoff":0.05,"doubleSided":true},{"pbrMetallicRoughness":{"metallicFactor":0,"roughnessFactor":1,"baseColorTexture":{"index":3}},"alphaMode":"MASK","alphaCutoff":0.05,"doubleSided":true},{"pbrMetallicRoughness":{"metallicFactor":0,"roughnessFactor":1,"baseColorTexture":{"index":4}},"alphaMode":"MASK","alphaCutoff":0.05,"doubleSided":true}],"meshes":[{"primitives":[{"mode":4,"attributes":{"POSITION":0,"NORMAL":1,"TEXCOORD_0":2},"indices":3,"material":0}]},{"primitives":[{"mode":4,"attributes":{"POSITION":4,"NORMAL":5,"TEXCOORD_0":6},"indices":7,"material":0}]},{"primitives":[{"mode":4,"attributes":{"POSITION":8,"NORMAL":9,"TEXCOORD_0":10},"indices":11,"material":0}]},{"primitives":[{"mode":4,"attributes":{"POSITION":12,"NORMAL":13,"TEXCOORD_0":14},"indices":15,"material":0}]},{"primitives":[{"mode":4,"attributes":{"POSITION":16,"NORMAL":17,"TEXCOORD_0":18},"indices":19,"material":0}]},{"primitives":[{"mode":4,"attributes":{"POSITION":20,"NORMAL":21,"TEXCOORD_0":22},"indices":23,"material":0}]},{"primitives":[{"mode":4,"attributes":{"POSITION":24,"NORMAL":25,"TEXCOORD_0":26},"indices":27,"material":1}]},{"primitives":[{"mode":4,"attributes":{"POSITION":28,"NORMAL":29,"TEXCOORD_0":30},"indices":31,"material":2}]},{"primitives":[{"mode":4,"attributes":{"POSITION":32,"NORMAL":33,"TEXCOORD_0":34},"indices":35,"material":3}]},{"primitives":[{"mode":4,"attributes":{"POSITION":36,"NORMAL":37,"TEXCOORD_0":38},"indices":39,"material":4}]},{"primitives":[{"mode":4,"attributes":{"POSITION":40,"NORMAL":41,"TEXCOORD_0":42},"indices":43,"material":5}]},{"primitives":[{"mode":4,"attributes":{"POSITION":44,"NORMAL":45,"TEXCOORD_0":46},"indices":47,"material":5}]}],"textures":[{"sampler":0,"source":0,"name":"texture2.png"},{"sampler":1,"source":1,"name":"mid section.png"},{"sampler":2,"source":2,"name":"dome.png"},{"sampler":3,"source":3,"name":"texture.png"},{"sampler":4,"source":4,"name":"fins.png"}],"samplers":[{"magFilter":9728,"minFilter":9728,"wrapS":33071,"wrapT":33071},{"magFilter":9728,"minFilter":9728,"wrapS":33071,"wrapT":33071},{"magFilter":9728,"minFilter":9728,"wrapS":33071,"wrapT":33071},{"magFilter":9728,"minFilter":9728,"wrapS":33071,"wrapT":33071},{"magFilter":9728,"minFilter":9728,"wrapS":33071,"wrapT":33071}],"images":[{"mimeType":"image/png","uri":"data:image/png;base64,"},{"mimeType":"image/png","uri":"data:image/png;base64,"},{"mimeType":"image/png","uri":"data:image/png;base64,"},{"mimeType":"image/png","uri":"data:image/png;base64,"},{"mimeType":"image/png","uri":"data:image/png;base64,"}],"animations":[{"name":"blast off","samplers":[{"input":48,"output":49,"interpolation":"LINEAR"},{"input":50,"output":51,"interpolation":"LINEAR"},{"input":52,"output":53,"interpolation":"LINEAR"}],"channels":[{"sampler":0,"target":{"node":12,"path":"rotation"}},{"sampler":1,"target":{"node":12,"path":"translation"}},{"sampler":2,"target":{"node":12,"path":"scale"}}]}]}