{"asset":{"version":"2.0","generator":"Blockbench 4.12.5 glTF exporter"},"scenes":[{"nodes":[14],"name":"blockbench_export"}],"scene":0,"nodes":[{"rotation":[0.19393077112596555,-0.021238873671759275,0.10677502837830748,0.9749558244199863],"translation":[-0.046875,-0.078125,-0.046875],"name":"cube","mesh":0},{"rotation":[-0.8303619868439789,0.21897407091947402,0.5047970558208802,-0.0879162072887827],"translation":[-0.046875,-0.21875,-0.03125],"name":"sphere","mesh":1},{"rotation":[-0.8303619868439789,0.21897407091947402,0.5047970558208802,-0.0879162072887827],"translation":[0,-0.375,0],"name":"sphere","mesh":2},{"rotation":[-0.8303619868439789,0.21897407091947402,0.5047970558208802,-0.0879162072887827],"translation":[-0.0625,-0.375,0.125],"name":"sphere","mesh":3},{"rotation":[-0.8303619868439789,0.21897407091947402,0.5047970558208802,-0.0879162072887827],"translation":[0.125,-0.375,0.125],"name":"sphere","mesh":4},{"rotation":[0.5992029449571389,0.14379249563970029,-0.7463068923265064,0.2516059844645017],"translation":[0.125,-0.1875,0],"name":"sphere","mesh":5},{"rotation":[0.5992029449571389,0.14379249563970029,-0.7463068923265064,0.2516059844645017],"translation":[0.125,-0.3125,-0.0625],"name":"sphere","mesh":6},{"rotation":[0.5992029449571389,0.14379249563970029,-0.7463068923265064,0.2516059844645017],"translation":[0.0625,-0.25,0.1875],"name":"sphere","mesh":7},{"rotation":[0.5992029449571389,0.14379249563970029,-0.7463068923265064,0.2516059844645017],"translation":[0,-0.1875,0.125],"name":"sphere","mesh":8},{"rotation":[-0.6493955788278931,0.18508266304443813,0.7371530825932426,0.025201644042493754],"translation":[0.046875,-0.25,-0.078125],"name":"sphere","mesh":9},{"rotation":[0.5992029449571389,0.14379249563970029,-0.7463068923265064,0.2516059844645017],"translation":[0.0625,-0.125,0.0625],"name":"sphere","mesh":10},{"translation":[0,-0.5625,0],"name":"cube","mesh":11},{"rotation":[0.17364817766693033,0,0,0.984807753012208],"name":"cube","mesh":12},{"translation":[0,0.484375,0],"name":"bone","children":[0,1,2,3,4,5,6,7,8,9,10,11,12]},{"children":[13]}],"bufferViews":[{"buffer":0,"byteOffset":0,"byteLength":288,"target":34962,"byteStride":12},{"buffer":0,"byteOffset":288,"byteLength":288,"target":34962,"byteStride":12},{"buffer":0,"byteOffset":576,"byteLength":192,"target":34962,"byteStride":8},{"buffer":0,"byteOffset":768,"byteLength":72,"target":34963},{"buffer":0,"byteOffset":840,"byteLength":3168,"target":34962,"byteStride":12},{"buffer":0,"byteOffset":4008,"byteLength":3168,"target":34962,"byteStride":12},{"buffer":0,"byteOffset":7176,"byteLength":2112,"target":34962,"byteStride":8},{"buffer":0,"byteOffset":9288,"byteLength":720,"target":34963},{"buffer":0,"byteOffset":10008,"byteLength":3168,"target":34962,"byteStride":12},{"buffer":0,"byteOffset":13176,"byteLength":3168,"target":34962,"byteStride":12},{"buffer":0,"byteOffset":16344,"byteLength":2112,"target":34962,"byteStride":8},{"buffer":0,"byteOffset":18456,"byteLength":720,"target":34963},{"buffer":0,"byteOffset":19176,"byteLength":3168,"target":34962,"byteStride":12},{"buffer":0,"byteOffset":22344,"byteLength":3168,"target":34962,"byteStride":12},{"buffer":0,"byteOffset":25512,"byteLength":2112,"target":34962,"byteStride":8},{"buffer":0,"byteOffset":27624,"byteLength":720,"target":34963},{"buffer":0,"byteOffset":28344,"byteLength":3168,"target":34962,"byteStride":12},{"buffer":0,"byteOffset":31512,"byteLength":3168,"target":34962,"byteStride":12},{"buffer":0,"byteOffset":34680,"byteLength":2112,"target":34962,"byteStride":8},{"buffer":0,"byteOffset":36792,"byteLength":720,"target":34963},{"buffer":0,"byteOffset":37512,"byteLength":3168,"target":34962,"byteStride":12},{"buffer":0,"byteOffset":40680,"byteLength":3168,"target":34962,"byteStride":12},{"buffer":0,"byteOffset":43848,"byteLength":2112,"target":34962,"byteStride":8},{"buffer":0,"byteOffset":45960,"byteLength":720,"target":34963},{"buffer":0,"byteOffset":46680,"byteLength":3168,"target":34962,"byteStride":12},{"buffer":0,"byteOffset":49848,"byteLength":3168,"target":34962,"byteStride":12},{"buffer":0,"byteOffset":53016,"byteLength":2112,"target":34962,"byteStride":8},{"buffer":0,"byteOffset":55128,"byteLength":720,"target":34963},{"buffer":0,"byteOffset":55848,"byteLength":3168,"target":34962,"byteStride":12},{"buffer":0,"byteOffset":59016,"byteLength":3168,"target":34962,"byteStride":12},{"buffer":0,"byteOffset":62184,"byteLength":2112,"target":34962,"byteStride":8},{"buffer":0,"byteOffset":64296,"byteLength":720,"target":34963},{"buffer":0,"byteOffset":65016,"byteLength":3168,"target":34962,"byteStride":12},{"buffer":0,"byteOffset":68184,"byteLength":3168,"target":34962,"byteStride":12},{"buffer":0,"byteOffset":71352,"byteLength":2112,"target":34962,"byteStride":8},{"buffer":0,"byteOffset":73464,"byteLength":720,"target":34963},{"buffer":0,"byteOffset":74184,"byteLength":3168,"target":34962,"byteStride":12},{"buffer":0,"byteOffset":77352,"byteLength":3168,"target":34962,"byteStride":12},{"buffer":0,"byteOffset":80520,"byteLength":2112,"target":34962,"byteStride":8},{"buffer":0,"byteOffset":82632,"byteLength":720,"target":34963},{"buffer":0,"byteOffset":83352,"byteLength":3168,"target":34962,"byteStride":12},{"buffer":0,"byteOffset":86520,"byteLength":3168,"target":34962,"byteStride":12},{"buffer":0,"byteOffset":89688,"byteLength":2112,"target":34962,"byteStride":8},{"buffer":0,"byteOffset":91800,"byteLength":720,"target":34963},{"buffer":0,"byteOffset":92520,"byteLength":288,"target":34962,"byteStride":12},{"buffer":0,"byteOffset":92808,"byteLength":288,"target":34962,"byteStride":12},{"buffer":0,"byteOffset":93096,"byteLength":192,"target":34962,"byteStride":8},{"buffer":0,"byteOffset":93288,"byteLength":72,"target":34963},{"buffer":0,"byteOffset":93360,"byteLength":288,"target":34962,"byteStride":12},{"buffer":0,"byteOffset":93648,"byteLength":288,"target":34962,"byteStride":12},{"buffer":0,"byteOffset":93936,"byteLength":192,"target":34962,"byteStride":8},{"buffer":0,"byteOffset":94128,"byteLength":72,"target":34963}],"buffers":[{"byteLength":94200,"uri":"data:application/octet-stream;base64,"}],"accessors":[{"bufferView":0,"componentType":5126,"count":24,"max":[0.1875,0.0000625000029685907,0.0625],"min":[-0.0625,0,-0.1875],"type":"VEC3"},{"bufferView":1,"componentType":5126,"count":24,"max":[1,1,1],"min":[-1,-1,-1],"type":"VEC3"},{"bufferView":2,"componentType":5126,"count":24,"max":[0.5,1],"min":[0,0],"type":"VEC2"},{"bufferView":3,"componentType":5123,"count":36,"max":[23],"min":[0],"type":"SCALAR"},{"bufferView":4,"componentType":5126,"count":264,"max":[0.125,0.125,0.125],"min":[-0.125,-0.125,-0.125],"type":"VEC3"},{"bufferView":5,"componentType":5126,"count":264,"max":[0.9659258127212524,0.9659258127212524,0.9659258127212524],"min":[-0.9659258127212524,-0.9659258127212524,-0.9659258127212524],"type":"VEC3"},{"bufferView":6,"componentType":5126,"count":264,"max":[0.6510586142539978,0.625],"min":[0.08329316973686218,0],"type":"VEC2"},{"bufferView":7,"componentType":5123,"count":360,"max":[263],"min":[0],"type":"SCALAR"},{"bufferView":8,"componentType":5126,"count":264,"max":[0.125,0.125,0.125],"min":[-0.125,-0.125,-0.125],"type":"VEC3"},{"bufferView":9,"componentType":5126,"count":264,"max":[0.9659258127212524,0.9659258127212524,0.9659258127212524],"min":[-0.9659258127212524,-0.9659258127212524,-0.9659258127212524],"type":"VEC3"},{"bufferView":10,"componentType":5126,"count":264,"max":[0.4010585844516754,0.640625],"min":[0.10148624330759048,0.078125],"type":"VEC2"},{"bufferView":11,"componentType":5123,"count":360,"max":[263],"min":[0],"type":"SCALAR"},{"bufferView":12,"componentType":5126,"count":264,"max":[0.125,0.125,0.125],"min":[-0.125,-0.125,-0.125],"type":"VEC3"},{"bufferView":13,"componentType":5126,"count":264,"max":[0.9659258127212524,0.9659258127212524,0.9659258127212524],"min":[-0.9659258127212524,-0.9659258127212524,-0.9659258127212524],"type":"VEC3"},{"bufferView":14,"componentType":5126,"count":264,"max":[0.6042068600654602,0.640625],"min":[0.0051681664772331715,0.0625],"type":"VEC2"},{"bufferView":15,"componentType":5123,"count":360,"max":[263],"min":[0],"type":"SCALAR"},{"bufferView":16,"componentType":5126,"count":264,"max":[0.125,0.125,0.125],"min":[-0.125,-0.125,-0.125],"type":"VEC3"},{"bufferView":17,"componentType":5126,"count":264,"max":[0.9659258127212524,0.9659258127212524,0.9659258127212524],"min":[-0.9659258127212524,-0.9659258127212524,-0.9659258127212524],"type":"VEC3"},{"bufferView":18,"componentType":5126,"count":264,"max":[0.6510586142539978,0.640625],"min":[0.10148624330759048,0.008091926574707031],"type":"VEC2"},{"bufferView":19,"componentType":5123,"count":360,"max":[263],"min":[0],"type":"SCALAR"},{"bufferView":20,"componentType":5126,"count":264,"max":[0.125,0.125,0.125],"min":[-0.125,-0.125,-0.125],"type":"VEC3"},{"bufferView":21,"componentType":5126,"count":264,"max":[0.9659258127212524,0.9659258127212524,0.9659258127212524],"min":[-0.9659258127212524,-0.9659258127212524,-0.9659258127212524],"type":"VEC3"},{"bufferView":22,"componentType":5126,"count":264,"max":[0.5619390606880188,0.640625],"min":[0.005191415548324585,0.078125],"type":"VEC2"},{"bufferView":23,"componentType":5123,"count":360,"max":[263],"min":[0],"type":"SCALAR"},{"bufferView":24,"componentType":5126,"count":264,"max":[0.125,0.125,0.125],"min":[-0.125,-0.125,-0.125],"type":"VEC3"},{"bufferView":25,"componentType":5126,"count":264,"max":[0.9659258127212524,0.9659258127212524,0.9659258127212524],"min":[-0.9659258127212524,-0.9659258127212524,-0.9659258127212524],"type":"VEC3"},{"bufferView":26,"componentType":5126,"count":264,"max":[0.6666836142539978,0.5710463523864746],"min":[0.23954316973686218,0],"type":"VEC2"},{"bufferView":27,"componentType":5123,"count":360,"max":[263],"min":[0],"type":"SCALAR"},{"bufferView":28,"componentType":5126,"count":264,"max":[0.0625,0.125,0.125],"min":[-0.0625,-0.125,-0.125],"type":"VEC3"},{"bufferView":29,"componentType":5126,"count":264,"max":[0.9911444187164307,0.9659258127212524,0.9659258127212524],"min":[-0.9911444187164307,-0.9659258127212524,-0.9659258127212524],"type":"VEC3"},{"bufferView":30,"componentType":5126,"count":264,"max":[0.65625,0.6875],"min":[0.004602773580700159,0],"type":"VEC2"},{"bufferView":31,"componentType":5123,"count":360,"max":[263],"min":[0],"type":"SCALAR"},{"bufferView":32,"componentType":5126,"count":264,"max":[0.125,0.125,0.125],"min":[-0.125,-0.125,-0.125],"type":"VEC3"},{"bufferView":33,"componentType":5126,"count":264,"max":[0.9659258127212524,0.9659258127212524,0.9659258127212524],"min":[-0.9659258127212524,-0.9659258127212524,-0.9659258127212524],"type":"VEC3"},{"bufferView":34,"componentType":5126,"count":264,"max":[0.6666836142539978,0.5866713523864746],"min":[0.0051681664772331715,0.046875],"type":"VEC2"},{"bufferView":35,"componentType":5123,"count":360,"max":[263],"min":[0],"type":"SCALAR"},{"bufferView":36,"componentType":5126,"count":264,"max":[0.125,0.125,0.125],"min":[-0.125,-0.125,-0.125],"type":"VEC3"},{"bufferView":37,"componentType":5126,"count":264,"max":[0.9659258127212524,0.9659258127212524,0.9659258127212524],"min":[-0.9659258127212524,-0.9659258127212524,-0.9659258127212524],"type":"VEC3"},{"bufferView":38,"componentType":5126,"count":264,"max":[0.6546252369880676,0.6343152523040771],"min":[0.0051681664772331715,0],"type":"VEC2"},{"bufferView":39,"componentType":5123,"count":360,"max":[263],"min":[0],"type":"SCALAR"},{"bufferView":40,"componentType":5126,"count":264,"max":[0.125,0.125,0.125],"min":[-0.125,-0.125,-0.125],"type":"VEC3"},{"bufferView":41,"componentType":5126,"count":264,"max":[0.9659258127212524,0.9659258127212524,0.9659258127212524],"min":[-0.9659258127212524,-0.9659258127212524,-0.9659258127212524],"type":"VEC3"},{"bufferView":42,"componentType":5126,"count":264,"max":[0.6510586142539978,0.523158073425293],"min":[0.0051681664772331715,0],"type":"VEC2"},{"bufferView":43,"componentType":5123,"count":360,"max":[263],"min":[0],"type":"SCALAR"},{"bufferView":44,"componentType":5126,"count":24,"max":[0.0625,0.5625,0.0625],"min":[0,0.1875,0],"type":"VEC3"},{"bufferView":45,"componentType":5126,"count":24,"max":[1,1,1],"min":[-1,-1,-1],"type":"VEC3"},{"bufferView":46,"componentType":5126,"count":24,"max":[0.4375,0.4375],"min":[0,0],"type":"VEC2"},{"bufferView":47,"componentType":5123,"count":36,"max":[23],"min":[0],"type":"SCALAR"},{"bufferView":48,"componentType":5126,"count":24,"max":[0.0625,0.1875,0.0625],"min":[0,0,0],"type":"VEC3"},{"bufferView":49,"componentType":5126,"count":24,"max":[1,1,1],"min":[-1,-1,-1],"type":"VEC3"},{"bufferView":50,"componentType":5126,"count":24,"max":[0.4375,0.4375],"min":[0.0625,0],"type":"VEC2"},{"bufferView":51,"componentType":5123,"count":36,"max":[23],"min":[0],"type":"SCALAR"}],"materials":[{"pbrMetallicRoughness":{"metallicFactor":0,"roughnessFactor":1,"baseColorTexture":{"index":0}},"alphaMode":"MASK","alphaCutoff":0.05,"doubleSided":true},{"pbrMetallicRoughness":{"metallicFactor":0,"roughnessFactor":1,"baseColorTexture":{"index":1}},"alphaMode":"MASK","alphaCutoff":0.05,"doubleSided":true},{"pbrMetallicRoughness":{"metallicFactor":0,"roughnessFactor":1,"baseColorTexture":{"index":2}},"alphaMode":"MASK","alphaCutoff":0.05,"doubleSided":true}],"textures":[{"sampler":0,"source":0,"name":"texture"},{"sampler":1,"source":1,"name":"texture"},{"sampler":2,"source":2,"name":"texture"}],"samplers":[{"magFilter":9728,"minFilter":9728,"wrapS":33071,"wrapT":33071},{"magFilter":9728,"minFilter":9728,"wrapS":33071,"wrapT":33071},{"magFilter":9728,"minFilter":9728,"wrapS":33071,"wrapT":33071}],"images":[{"mimeType":"image/png","uri":"data:image/png;base64,"},{"mimeType":"image/png","uri":"data:image/png;base64,"},{"mimeType":"image/png","uri":"data:image/png;base64,"}],"meshes":[{"primitives":[{"mode":4,"attributes":{"POSITION":0,"NORMAL":1,"TEXCOORD_0":2},"indices":3,"material":0}]},{"primitives":[{"mode":4,"attributes":{"POSITION":4,"NORMAL":5,"TEXCOORD_0":6},"indices":7,"material":1}]},{"primitives":[{"mode":4,"attributes":{"POSITION":8,"NORMAL":9,"TEXCOORD_0":10},"indices":11,"material":1}]},{"primitives":[{"mode":4,"attributes":{"POSITION":12,"NORMAL":13,"TEXCOORD_0":14},"indices":15,"material":1}]},{"primitives":[{"mode":4,"attributes":{"POSITION":16,"NORMAL":17,"TEXCOORD_0":18},"indices":19,"material":1}]},{"primitives":[{"mode":4,"attributes":{"POSITION":20,"NORMAL":21,"TEXCOORD_0":22},"indices":23,"material":1}]},{"primitives":[{"mode":4,"attributes":{"POSITION":24,"NORMAL":25,"TEXCOORD_0":26},"indices":27,"material":1}]},{"primitives":[{"mode":4,"attributes":{"POSITION":28,"NORMAL":29,"TEXCOORD_0":30},"indices":31,"material":1}]},{"primitives":[{"mode":4,"attributes":{"POSITION":32,"NORMAL":33,"TEXCOORD_0":34},"indices":35,"material":1}]},{"primitives":[{"mode":4,"attributes":{"POSITION":36,"NORMAL":37,"TEXCOORD_0":38},"indices":39,"material":1}]},{"primitives":[{"mode":4,"attributes":{"POSITION":40,"NORMAL":41,"TEXCOORD_0":42},"indices":43,"material":1}]},{"primitives":[{"mode":4,"attributes":{"POSITION":44,"NORMAL":45,"TEXCOORD_0":46},"indices":47,"material":2}]},{"primitives":[{"mode":4,"attributes":{"POSITION":48,"NORMAL":49,"TEXCOORD_0":50},"indices":51,"material":2}]}]}